<svg xmlns="http://www.w3.org/2000/svg" xmlns:xlink="http://www.w3.org/1999/xlink" width="500.051" height="499.465" viewBox="0 0 500.051 499.465">
  <defs>
    <clipPath id="clip-path">
      <rect x="632" y="-64" width="500.051" height="499.465" fill="none"/>
    </clipPath>
  </defs>
  <g id="Camada_x0020_1" transform="translate(-632.001 63.971)">
    <g id="Grupo_de_rolagem_1" data-name="Grupo de rolagem 1" transform="translate(0.001 0.029)" clip-path="url(#clip-path)" style="isolation: isolate">
      <g id="Grupo_de_rolagem_2" data-name="Grupo de rolagem 2" transform="translate(0 0)" clip-path="url(#clip-path)" style="isolation: isolate">
        <path id="Caminho_1" data-name="Caminho 1" d="M944.275,240.037c13.07-15.124,43.921-39.56,55.128-46.218a.633.633,0,0,0-.4-1.174c-14.518,1.678-37.23,15.281-54.162,24.714-42.494,23.658-98.727,54.973-149.5,50.179a97.494,97.494,0,0,1-21.243-4.346,87.46,87.46,0,0,1-26.674-14.656,2.12,2.12,0,0,0-3.383,2.156,180.088,180.088,0,0,0,39.008,76.27,11.878,11.878,0,0,0,6.808,3.916,80.981,80.981,0,0,0,16.47,1.344c51.855-1.036,97.574-49.459,137.94-92.187ZM599.424,426.744H565.267V369.82h30.748v7.64H576.735V393H595.6v7.811H576.735v18.3h22.691v7.64ZM542.336,397.3q0-13.014-8.672-17.573c-2.919-1.515-7.47-2.278-13.622-2.278H515.09V419.1h4.624a40.059,40.059,0,0,0,9.811-.928,16.559,16.559,0,0,0,6.329-3.295q6.49-5.535,6.482-17.573Zm12.189-.568q0,17.9-13.9,25.692-7.735,4.321-21.316,4.313H503.618V369.817h15.693A64.23,64.23,0,0,1,532,370.8a31.515,31.515,0,0,1,7.9,2.846q14.613,7.243,14.621,23.092ZM476.782,404.3,469.3,382.344,461,404.3Zm19.851,22.451H484.356l-5.3-15.54H458.575l-5.949,15.54h-9.434l23.263-56.943h8.78l21.4,56.943ZM429.289,397.3q0-13.014-8.676-17.573c-2.913-1.515-7.464-2.278-13.624-2.278h-4.948V419.1h4.62a40.1,40.1,0,0,0,9.815-.928,16.516,16.516,0,0,0,6.325-3.295q6.5-5.535,6.486-17.573Zm12.191-.568q0,17.9-13.9,25.692-7.73,4.321-21.312,4.313H390.575V369.817h15.691a64.252,64.252,0,0,1,12.7.982,31.509,31.509,0,0,1,7.893,2.846q14.616,7.243,14.627,23.092Zm-58.3,30.009H349.185V369.82h11.466V419.1h22.526Zm-46.844-25.052a53.171,53.171,0,0,1-.729,10.157,21.516,21.516,0,0,1-2.689,6.35q-5.946,9.516-19.918,9.518-14.248,0-19.933-9.518a20.633,20.633,0,0,1-2.6-8.3,82.6,82.6,0,0,1-.328-8.868V369.809H301.6v30.262c0,3.692.084,6.223.24,7.64a16.707,16.707,0,0,0,2.19,7.157c2,3.206,5.191,4.791,9.572,4.791,5.621,0,9.38-2.483,11.263-7.485.859-2.273,1.31-6.394,1.31-12.362V369.807h10.157v31.881Zm-54.649-28.3-3.657,7.069a24.737,24.737,0,0,0-12.278-3.569c-6.141,0-11.087,1.931-14.886,5.813s-5.705,9.019-5.705,15.417q0,9.335,5.744,15.448t15.241,6.1a24.763,24.763,0,0,0,12.036-3.1l3.021,7a34.421,34.421,0,0,1-16.761,4.137q-13.733,0-22.609-8.12-8.872-8.153-8.862-20.99a28.015,28.015,0,0,1,9.019-21.312q9.024-8.46,22.777-8.452a33.862,33.862,0,0,1,16.919,4.557Zm-70.756,30.9-7.483-21.953-8.3,21.953Zm19.845,22.451H218.5l-5.295-15.54H192.716l-5.949,15.54h-9.43L200.6,369.805h8.774l21.4,56.943ZM176.28,377.461H157V394.79h18.863v7.723H157v24.231H145.533V369.821H176.28ZM925.22,487.129l-24.764,69.51-24.745-69.51H858.226l33.851,89.827H906.84l35.939-89.827H925.222Zm336.589,43.628c0-16.55-7.573-32.33-25.541-32.33s-25.535,15.779-25.535,32.33c0,17.2,6.672,34.907,25.535,34.907S1261.809,547.953,1261.809,530.756Zm-70.323,0c0-25.159,19-45.177,44.78-45.177,25.8,0,44.786,20.018,44.786,45.177,0,26.816-17.193,47.733-44.786,47.733S1191.486,557.573,1191.486,530.756ZM1143,576.956V499.2h-27.712V487.129h73.533V499.2h-27.731v77.758H1143Zm-40.323,0h-13.085c-17.2-20.658-34.388-41.2-51.341-64.428h-.24v64.428h-14.5V487.129h13.208c17.2,20.52,34.265,40.939,51.2,64.027h.259V487.129h14.5v89.827ZM814.52,499.188H778.842v24.647h29.524v12.053H778.842v29H814.52v12.055H760.755V487.14H814.52v12.047Zm194.4,0H973.251v24.642h29.518v12.053H973.251v29.006h35.674v12.069H955.16V487.133h53.765v12.053Zm-326.014,65.7H693.95c20.656,0,31.812-10.519,31.812-35.536,0-18.61-10.78-30.167-29.764-30.167H682.913v65.7Zm12.968-77.75c36.559,0,49.145,20.656,49.145,42.331,0,29.641-19.005,47.475-50.821,47.475H664.819V487.14Zm-93.538,15.647c-3.983-2.693-9.242-5.144-14.5-5.144-7.568,0-11.674,4.244-11.674,9.5,0,5.9,6.294,10.4,16.815,18.727,12.053,9.641,18.468,17.2,18.468,28.23,0,11.3-10.778,24.386-31.06,24.386-9.361,0-19.744-2.811-26.415-8.971l6.536-10.275c4.741,3.465,10.26,7.192,18.345,7.192,7.451,0,13.984-3.983,13.984-12.45,0-9.884-12.049-16.435-19.245-22.076-8.726-7.054-16.033-12.573-16.033-24.5,0-12.069,12.191-21.817,28.489-21.817,10.26,0,18.482,3.724,22.71,7.815l-6.419,9.38Zm-74.784,27.971c0-16.55-7.571-32.33-25.541-32.33s-25.537,15.78-25.537,32.33c0,17.2,6.672,34.907,25.537,34.907S527.558,547.955,527.558,530.758Zm-70.323,0c0-25.159,19-45.177,44.782-45.177,25.8,0,44.784,20.018,44.784,45.177,0,26.816-17.191,47.733-44.784,47.733S457.235,557.575,457.235,530.758Zm-16.619,46.2H422.531V533.706h-37.6v43.252H366.827V487.131h18.108v34.52h37.6V487.39h18.085v89.568Zm-93.551,0H333.975c-17.193-20.658-34.384-41.2-51.337-64.428h-.24v64.428h-14.5V487.131H281.1c17.191,20.52,34.265,40.939,51.2,64.027h.259V487.131h14.5v89.827Zm-119.8-89.831h18.087v89.827H227.265Zm-37.14,43.633c0-16.55-7.571-32.33-25.541-32.33s-25.541,15.78-25.541,32.33c0,17.2,6.678,34.907,25.541,34.907S190.125,547.957,190.125,530.76Zm-70.327,0c0-25.159,19.005-45.177,44.786-45.177S209.37,505.6,209.37,530.76c0,26.816-17.2,47.733-44.786,47.733S119.8,557.577,119.8,530.76Zm-17.9,46.2H83.811V506.9h-.255c-9.884,25.017-20.144,47.611-30.284,70.064H43.511C33.89,554.506,24.143,531.915,14.764,506.9H14.5V576.96H0V487.133H22.335c9.244,22.07,24.124,57.232,27.589,68.787h.259c4.229-12.068,20.4-46.717,30.679-68.787H101.9V576.96Zm958.2-393.194c-19.034,4.952-34.3,16.105-47.436,32.267-3.607,4.413-7.038,8.95-10.471,13.486a331.448,331.448,0,0,0-31.988,51.9c-4.654,9.194-17.193,35.337-22.331,44.527-14.782,26.3-20.848,36.06-37.1,53.492-17.881,19.176-35.3,31.538-52.852,37.439a1.525,1.525,0,0,0-.293,2.792c9.777,5.728,23.019,4.522,33.8,3.623,35.732-2.982,58.977-34.4,77.19-61.856a466.874,466.874,0,0,0,34.192-59.789c9.367-19.933,17.452-40.436,27.384-60.1,9.591-18.986,21.4-36.681,37.609-50.668,2.777-2.4,5.64-4.672,8.432-7.069,1.07-.915.04-2.673-1.392-2.551a91.01,91.01,0,0,0-14.748,2.5Zm-282.644,69.2c16.675,5.41,34.591,5.172,51.7,2.048,18.556-3.377,36.436-9.948,53.615-17.638,9.9-4.419,19.64-9.209,29.246-14.243,8.726-4.591,17.158-9.675,25.971-14.092,6.448-3.241,13.07-6.066,19.728-8.829,2.928-1.222,9.723-4.137,13.639-6.154a.651.651,0,0,0-.4-1.227c-5.172.811-15.158,2.434-18.919,2.953-29.11,4.033-64.876,6.795-87.4,4.86-31.177-2.67-58.874-11.5-78.842-30.4-13.76-13.022-22.54-30.625-26.763-52.167a2.428,2.428,0,0,0-4.652-.41c-1.828,4.829-3.554,9.8-5.109,15.016-9.863,33.2-12.308,63.308-9.777,90.124a11.725,11.725,0,0,0,3.1,6.912c10.245,10.97,21.782,18.986,34.852,23.249Zm15.766-90.54c17.26,16.332,40.973,23.454,64.027,26.523,27.485,3.651,55.51,2.238,83.03-.142,26.816-2.326,53.477-6.085,80.3-8.431,4.428-.4,14.675-1.07,20.451-1.433a.416.416,0,0,0,.035-.827c-31.3-4.687-63.323-3.412-94.054-11.743-20.725-5.621-40.352-18.453-55.285-33.68a133.132,133.132,0,0,1-33.245-57.545,132.928,132.928,0,0,1-4.16-47.7l2.23-23.623A3.463,3.463,0,0,0,851.367.5C836.657,8.981,797,35.314,768.889,86.132a14.207,14.207,0,0,0-1.726,7.362c1.016,30.025,9.3,53.061,26.059,68.929ZM955.6,286.227c18.623-36.817,37.37-68.977,62.822-88.824.859-.675,3.705-2.742,5.45-4.091a.45.45,0,0,0-.4-.792c-18.591,4.986-46.682,28.782-71.378,54.925C912.367,289.523,862.91,341.875,806.558,343c-1,.035-1.985.015-2.967-.019a1.692,1.692,0,0,0-1.139,3c19.088,15.643,42.816,23.761,40.714,46.111a23.361,23.361,0,0,1-1.331,5.936,3.5,3.5,0,0,0,3.726,4.618c53.961-6.1,81.467-59.959,110.038-116.419Z" transform="translate(10.999 -30.029)" fill="#2366af"/>
      </g>
    </g>
  </g>
</svg>
